<svg xmlns="http://www.w3.org/2000/svg" width="1024" height="1024" viewBox="0 0 1024 1024" version="1.1">
	<path d="M 0 512.001 L 0 1024.002 512.250 1023.751 L 1024.500 1023.500 1024.751 511.750 L 1025.002 0 512.501 0 L 0 0 0 512.001 M 0.496 512.500 C 0.496 794.100, 0.610 909.151, 0.750 768.168 C 0.890 627.186, 0.890 396.786, 0.750 256.168 C 0.610 115.551, 0.496 230.900, 0.496 512.500 M 529.925 294.399 C 522.020 297.439, 337.145 390.605, 334.725 392.768 C 333.749 393.641, 331.563 397.173, 329.867 400.619 C 327.067 406.307, 326.816 407.602, 327.141 414.695 C 327.415 420.656, 328.136 423.792, 330.187 427.934 L 332.873 433.362 330.497 436.186 C 324.027 443.874, 327.058 461.962, 336.004 469.060 C 337.927 470.585, 370.550 487.530, 408.500 506.716 C 446.450 525.901, 479.522 542.889, 481.994 544.466 C 484.466 546.043, 487.034 547.333, 487.700 547.333 C 488.367 547.333, 488.711 547.659, 488.465 548.057 C 488.219 548.455, 490.008 550.292, 492.440 552.140 C 494.872 553.988, 497.088 556.333, 497.364 557.351 C 497.679 558.514, 498.325 558.917, 499.103 558.437 C 499.973 557.899, 500.145 558.181, 499.681 559.388 C 499.238 560.544, 499.401 560.870, 500.181 560.388 C 500.915 559.934, 501.140 560.192, 500.795 561.091 C 500.496 561.872, 500.920 563.136, 501.739 563.901 C 503.037 565.113, 503.135 564.985, 502.507 562.896 C 501.282 558.826, 495.856 550.971, 494.744 551.658 C 494.165 552.016, 493.972 551.854, 494.316 551.298 C 495.058 550.098, 490.131 546.068, 480.500 539.996 C 476.650 537.569, 443.800 520.568, 407.500 502.217 C 371.200 483.865, 339.925 467.599, 338 466.069 C 329.184 459.064, 328.661 438, 337.303 438 C 338.910 438, 467.981 502.437, 471.500 504.996 C 472.537 505.750, 540.276 540.108, 580.500 560.282 C 617.413 578.795, 616.031 578.834, 657.625 558.144 C 674.194 549.902, 689.324 541.776, 691.249 540.087 C 701.449 531.131, 702.518 510.117, 693.320 499.374 C 692.319 498.205, 666.193 484.540, 635.263 469.007 C 604.333 453.475, 579.248 440.407, 579.520 439.968 C 579.791 439.530, 579.447 438.912, 578.756 438.595 C 578.065 438.278, 578.453 438.251, 579.618 438.535 C 580.968 438.864, 586.319 436.822, 594.391 432.897 L 607.047 426.742 614.273 429.758 C 623.435 433.581, 630.216 434.512, 637.657 432.968 C 644.490 431.549, 689.340 409.443, 692.701 405.837 C 693.912 404.538, 695.915 401.231, 697.152 398.488 C 699.996 392.181, 700.240 380.516, 697.651 374.554 C 693.545 365.095, 695.486 366.249, 620.669 328.792 L 550.500 293.661 542 293.343 C 536.469 293.136, 532.251 293.505, 529.925 294.399 M 537 365.128 C 530.536 366.201, 513.173 374.464, 507.626 379.107 C 499.639 385.793, 499.536 393.554, 507.326 401.575 L 511.500 405.872 522 400.964 C 535.771 394.527, 541.125 393.404, 548.741 395.355 C 551.929 396.172, 568.838 403.850, 586.316 412.417 C 603.793 420.985, 620.132 428.508, 622.625 429.136 C 625.257 429.799, 630.126 430.028, 634.241 429.683 C 640.780 429.135, 643.101 428.191, 664.412 417.420 C 677.111 411.002, 688.508 404.833, 689.740 403.711 C 692.788 400.935, 696.001 391.948, 695.996 386.212 C 695.994 383.296, 695.245 380.274, 694.030 378.281 L 692.068 375.063 672.284 384.647 C 661.403 389.918, 650.025 395.402, 647 396.834 C 640.537 399.892, 629.583 400.875, 622.219 399.057 C 619.623 398.416, 603.712 390.972, 586.861 382.514 C 551.045 364.539, 547.661 363.359, 537 365.128 M 536 398.696 C 532.885 399.223, 516 407.086, 516 408.009 C 516 408.969, 571.961 437.436, 574.569 437.803 C 575.752 437.970, 580.477 436.270, 585.069 434.026 C 589.660 431.782, 594.022 430.178, 594.761 430.462 C 595.499 430.745, 595.878 430.611, 595.601 430.164 C 595.325 429.717, 597.165 428.347, 599.690 427.120 L 604.282 424.889 583.891 414.864 C 549.165 397.792, 546.552 396.909, 536 398.696 M 332.167 405.533 C 329.986 410.319, 329.738 415.585, 331.419 421.369 C 334.128 430.689, 336.628 432.648, 362.311 445.578 C 375.065 451.999, 394.050 461.645, 404.500 467.013 C 453.298 492.078, 511.785 521.860, 556.867 544.599 L 606.235 569.500 617.050 569.500 L 627.866 569.500 656.555 555.112 C 672.335 547.199, 686.743 539.409, 688.573 537.802 C 694.412 532.675, 697.727 519.673, 695.015 512.539 C 694.473 511.115, 693.409 509.710, 692.649 509.419 C 691.890 509.127, 677.595 515.618, 660.884 523.843 C 629.039 539.516, 625.321 541.001, 618 540.970 C 607.975 540.928, 607.322 540.632, 527.500 499.986 C 374.946 422.303, 336.567 403, 334.670 403 C 333.928 403, 332.802 404.140, 332.167 405.533 M 329.918 528.822 C 326.915 535.106, 326.384 542.368, 328.415 549.354 C 330.173 555.401, 335.452 562.424, 337.616 561.594 C 338.342 561.315, 339.245 561.587, 339.622 562.198 C 340.038 562.871, 339.854 563.028, 339.155 562.595 C 338.520 562.203, 338 562.124, 338 562.421 C 338 563.543, 346.119 567.044, 347.189 566.383 C 347.805 566.003, 348.037 566.132, 347.704 566.670 C 346.935 567.914, 355.759 572.267, 357.220 571.364 C 357.833 570.985, 358.025 571.150, 357.660 571.741 C 357.303 572.318, 357.707 573.057, 358.558 573.384 C 359.567 573.771, 359.855 573.575, 359.388 572.819 C 358.903 572.034, 359.235 571.876, 360.418 572.330 C 361.378 572.699, 362.464 573.007, 362.832 573.015 C 363.199 573.024, 362.900 573.411, 362.166 573.876 C 361.099 574.553, 361.159 574.847, 362.468 575.349 C 363.555 575.766, 363.864 575.588, 363.388 574.819 C 362.903 574.034, 363.235 573.876, 364.418 574.330 C 365.378 574.699, 366.464 575.007, 366.832 575.015 C 367.199 575.024, 366.900 575.411, 366.166 575.876 C 365.099 576.553, 365.159 576.847, 366.468 577.349 C 367.528 577.756, 367.860 577.583, 367.413 576.859 C 366.993 576.179, 367.267 575.939, 368.111 576.245 C 368.875 576.523, 369.403 577.210, 369.284 577.772 C 369.165 578.335, 369.902 578.577, 370.921 578.310 C 371.940 578.044, 373.073 578.310, 373.439 578.901 C 373.861 579.584, 373.445 579.759, 372.302 579.382 C 370.111 578.659, 375.762 582.351, 378.302 583.302 C 379.384 583.708, 379.860 583.582, 379.493 582.989 C 378.698 581.702, 379.339 581.742, 382.481 583.173 C 383.950 583.842, 384.602 584.628, 384 585 C 383.389 585.378, 383.939 586.107, 385.305 586.729 C 387.209 587.597, 387.667 587.518, 387.667 586.323 C 387.667 585.390, 379.117 580.567, 364.583 573.300 C 351.887 566.953, 340.324 560.927, 338.887 559.909 C 337.450 558.892, 335.950 558.383, 335.554 558.780 C 335.158 559.176, 334.983 558.825, 335.167 558 C 335.351 557.170, 334.909 556.623, 334.176 556.775 C 333.447 556.926, 333.111 556.629, 333.429 556.115 C 334.131 554.978, 333.049 551.853, 332.145 552.408 C 330.257 553.569, 330.096 533.794, 331.975 531.530 C 332.673 530.689, 334.039 530, 335.009 530 C 335.979 530, 364.779 543.970, 399.009 561.045 C 433.239 578.119, 463.778 592.760, 466.873 593.580 C 478.346 596.620, 490.487 592.589, 498.187 583.185 C 500.442 580.430, 498.259 579.671, 495.522 582.259 C 488.564 588.835, 477.196 592.023, 468 589.976 C 464.661 589.232, 446.394 580.692, 421.500 568.234 C 358.800 536.857, 344.982 530, 344.450 530 C 344.181 530, 342.123 528.840, 339.878 527.423 C 333.447 523.363, 332.459 523.502, 329.918 528.822 M 328.158 542 C 328.158 543.375, 328.385 543.938, 328.662 543.250 C 328.940 542.563, 328.940 541.438, 328.662 540.750 C 328.385 540.063, 328.158 540.625, 328.158 542 M 352 569 C 352.825 569.533, 353.950 569.969, 354.500 569.969 C 355.050 569.969, 354.825 569.533, 354 569 C 353.175 568.467, 352.050 568.031, 351.500 568.031 C 350.950 568.031, 351.175 568.467, 352 569 M 375.500 581 C 375.840 581.550, 376.879 581.993, 377.809 581.985 C 379.266 581.971, 379.293 581.835, 378 581 C 376.042 579.734, 374.718 579.734, 375.500 581 M 575.507 585.989 C 575.157 586.555, 575.558 586.723, 576.448 586.382 C 578.180 585.717, 578.497 585, 577.059 585 C 576.541 585, 575.843 585.445, 575.507 585.989 M 390.166 587.876 C 389.099 588.553, 389.159 588.847, 390.468 589.349 C 391.424 589.716, 391.850 589.566, 391.493 588.989 C 390.636 587.602, 391.625 587.755, 395.082 589.543 C 396.723 590.391, 397.825 591.474, 397.531 591.949 C 397.238 592.425, 398.010 592.591, 399.249 592.320 C 401.057 591.924, 401.205 592.037, 400 592.898 C 398.667 593.850, 398.667 593.984, 400 594.103 C 400.825 594.177, 402.108 594.154, 402.850 594.052 C 403.593 593.950, 403.907 594.341, 403.548 594.922 C 403.138 595.585, 403.534 595.732, 404.612 595.319 C 405.703 594.900, 406.087 595.050, 405.667 595.730 C 404.722 597.258, 422.325 606.196, 424.577 605.332 C 425.752 604.881, 426.096 605.036, 425.622 605.802 C 425.163 606.546, 429.853 609.418, 439.050 614.025 C 446.823 617.919, 452.914 620.670, 452.585 620.138 C 452.256 619.606, 452.491 619.003, 453.107 618.798 C 453.723 618.592, 453.022 617.875, 451.550 617.205 C 449.550 616.293, 449.057 616.283, 449.600 617.162 C 450.099 617.969, 449.778 618.129, 448.582 617.670 C 447.622 617.301, 446.536 616.993, 446.168 616.985 C 445.801 616.976, 446.100 616.589, 446.834 616.124 C 447.901 615.447, 447.841 615.153, 446.532 614.651 C 445.576 614.284, 445.150 614.434, 445.507 615.011 C 446.362 616.395, 445.376 616.246, 441.950 614.474 C 438.784 612.837, 437.922 611.649, 440.664 612.701 C 441.785 613.132, 442.092 612.957, 441.603 612.166 C 441.176 611.476, 439.769 611.234, 438.189 611.577 C 436.109 612.029, 435.840 611.920, 437 611.096 C 438.333 610.149, 438.333 610.016, 437 609.897 C 436.175 609.823, 434.892 609.846, 434.150 609.948 C 433.407 610.050, 433.055 609.719, 433.368 609.213 C 433.681 608.707, 432.798 607.773, 431.405 607.139 C 429.535 606.286, 429.056 606.282, 429.575 607.122 C 429.981 607.778, 429.765 608.088, 429.064 607.855 C 428.396 607.632, 427.996 607.087, 428.175 606.644 C 428.663 605.433, 423.817 603.133, 422.136 603.778 C 421.316 604.093, 420.940 603.905, 421.282 603.352 C 422.014 602.169, 411.292 596.701, 409.912 597.554 C 409.383 597.881, 409.074 597.695, 409.225 597.140 C 409.431 596.385, 393.106 586.930, 391.745 587.015 C 391.610 587.024, 390.900 587.411, 390.166 587.876 M 535.099 604.386 C 527.655 608.168, 525.182 609.856, 526.401 610.324 C 527.546 610.763, 527.869 610.598, 527.388 609.819 C 526.905 609.038, 527.231 608.875, 528.388 609.319 C 529.544 609.762, 529.870 609.599, 529.388 608.819 C 528.905 608.038, 529.231 607.875, 530.388 608.319 C 531.544 608.762, 531.870 608.599, 531.388 607.819 C 530.905 607.038, 531.231 606.875, 532.388 607.319 C 533.332 607.681, 533.858 607.579, 533.558 607.093 C 532.855 605.957, 535.846 604.787, 537.245 605.651 C 537.921 606.069, 538.010 605.826, 537.490 604.985 C 536.891 604.015, 537.132 603.836, 538.388 604.319 C 539.544 604.762, 539.870 604.599, 539.388 603.819 C 538.905 603.038, 539.231 602.875, 540.388 603.319 C 541.544 603.762, 541.870 603.599, 541.388 602.819 C 540.905 602.038, 541.231 601.875, 542.388 602.319 C 543.544 602.762, 543.870 602.599, 543.388 601.819 C 542.926 601.071, 543.203 600.864, 544.169 601.235 C 545.061 601.577, 545.667 601.241, 545.667 600.405 C 545.667 599.632, 545.629 599.023, 545.583 599.051 C 545.538 599.079, 540.819 601.480, 535.099 604.386 M 522 613 C 521.099 613.582, 520.975 613.975, 521.691 613.985 C 522.346 613.993, 523.160 613.550, 523.500 613 C 524.267 611.758, 523.921 611.758, 522 613 M 455.211 620.849 C 454.381 621.375, 455.020 621.667, 457 621.667 C 458.980 621.667, 459.619 621.375, 458.789 620.849 C 458.080 620.399, 457.275 620.031, 457 620.031 C 456.725 620.031, 455.920 620.399, 455.211 620.849 M 501.931 621.957 C 502.848 622.524, 502.737 622.887, 501.502 623.361 C 499.211 624.240, 498.780 624.165, 499.493 623.011 C 499.850 622.434, 499.424 622.284, 498.468 622.651 C 497.159 623.153, 497.099 623.447, 498.166 624.124 C 499.256 624.815, 499.241 624.972, 498.083 624.985 C 497.304 624.993, 496.923 625.256, 497.236 625.570 C 497.715 626.048, 506.001 622.417, 505.999 621.730 C 505.999 621.603, 504.805 621.431, 503.346 621.346 C 501.759 621.254, 501.190 621.500, 501.931 621.957 M 461.639 623.224 C 462.014 623.832, 461.334 623.968, 459.875 623.576 C 458.569 623.226, 459.525 624.057, 462 625.424 C 466.323 627.812, 470.097 629.001, 467 627 C 465.667 626.138, 465.667 626.037, 467 626.086 C 467.825 626.116, 469.400 626.527, 470.500 627 L 472.500 627.859 470.500 628 L 468.500 628.141 470.500 629 C 473.590 630.328, 487.264 630.236, 486.434 628.893 C 485.970 628.142, 486.458 628.011, 487.948 628.484 C 490.741 629.370, 496.739 627.084, 494.817 625.866 C 494.093 625.407, 493.050 625.031, 492.500 625.031 C 491.950 625.031, 492.152 625.443, 492.948 625.947 C 494.091 626.670, 493.880 626.964, 491.948 627.343 C 490.602 627.607, 488.600 627.851, 487.500 627.885 C 486.400 627.919, 483.475 628.181, 481 628.468 C 477.861 628.832, 476.954 628.694, 478 628.010 C 479.134 627.269, 478.647 627.021, 476 626.992 C 474.075 626.970, 469.918 625.891, 466.763 624.593 C 463.608 623.296, 461.302 622.680, 461.639 623.224 M 463 625 C 463.825 625.533, 464.950 625.969, 465.500 625.969 C 466.050 625.969, 465.825 625.533, 465 625 C 464.175 624.467, 463.050 624.031, 462.500 624.031 C 461.950 624.031, 462.175 624.467, 463 625 M 191.179 675.521 C 189.087 676.430, 188.127 677.397, 188.584 678.136 C 189.039 678.872, 188.876 679.042, 188.147 678.591 C 186.863 677.797, 184.932 679.389, 183.158 682.705 C 181.569 685.674, 181.702 693.524, 183.398 696.802 C 185.350 700.578, 188.633 703.345, 190.091 702.443 C 190.834 701.985, 191.051 702.108, 190.648 702.760 C 189.974 703.852, 193.509 705.329, 204.207 708.424 C 213.198 711.025, 216.238 716.293, 211.750 721.497 C 207.165 726.814, 193.509 726.535, 188.521 721.023 C 186.128 718.379, 184.845 718.471, 182.010 721.490 C 179.779 723.865, 179.751 724.067, 181.407 725.897 C 184.927 729.787, 192.946 732.391, 201.573 732.448 C 208.781 732.494, 210.098 732.201, 213.862 729.710 C 219.081 726.256, 221.991 721.643, 221.996 716.815 C 222.006 707.097, 217.340 703.094, 200.647 698.496 C 193.337 696.483, 189.756 693.174, 190.188 688.832 C 190.925 681.433, 202.126 679.293, 211.058 684.845 L 215.815 687.802 218.418 685.085 L 221.021 682.368 218.761 680.246 C 212.638 674.499, 198.937 672.151, 191.179 675.521 M 345.660 674.741 C 345.371 675.209, 345.216 688.284, 345.317 703.796 L 345.500 731.999 349.888 732 L 354.276 732 353.608 725.480 C 352.970 719.255, 353.065 718.844, 355.690 716.412 L 358.440 713.863 361.182 717.182 C 362.690 719.007, 365.853 723.069, 368.212 726.210 C 372.388 731.770, 372.628 731.921, 377.372 731.960 C 381.118 731.991, 382.024 731.711, 381.289 730.750 C 380.763 730.063, 376.389 724.384, 371.568 718.130 C 366.748 711.877, 363.186 706.943, 363.652 707.165 C 364.118 707.387, 368.071 703.841, 372.435 699.285 L 380.370 691 375.913 691 C 371.650 691, 371.088 691.370, 363 699.500 C 358.349 704.175, 354.309 708, 354.022 708.001 C 353.735 708.001, 353.500 700.463, 353.500 691.251 L 353.500 674.500 349.843 674.195 C 347.831 674.028, 345.949 674.273, 345.660 674.741 M 452.250 674.662 C 450.734 675.274, 450.614 679.410, 452.035 682.066 C 453.288 684.406, 457.256 684.601, 459.429 682.429 C 461.294 680.564, 461.483 676.883, 459.800 675.200 C 458.599 673.999, 454.600 673.714, 452.250 674.662 M 500.714 674.619 C 500.321 675.012, 500 688.083, 500 703.667 L 500 732 503.926 732 L 507.852 732 508.176 717.520 C 508.492 703.376, 508.562 702.978, 511.156 700.386 C 514.101 697.445, 520.418 696.363, 523.102 698.342 C 526.392 700.767, 527 703.824, 527 717.934 L 527 732 531 732 L 535 732 535 716.148 C 535 701.293, 534.856 700.082, 532.714 696.898 C 530.163 693.106, 524.936 690.121, 520.718 690.048 C 517.054 689.985, 511.126 692.509, 510.381 694.449 C 510.056 695.296, 509.346 695.714, 508.802 695.378 C 508.218 695.016, 507.954 690.621, 508.157 684.633 L 508.500 674.500 504.964 674.202 C 503.020 674.039, 501.107 674.226, 500.714 674.619 M 234.682 678.767 C 233.144 679.110, 232.904 680.050, 233.131 684.837 L 233.399 690.500 230.199 690.813 C 227.260 691.101, 227 691.415, 227 694.677 C 227 698.033, 227.160 698.204, 229.928 697.797 L 232.855 697.368 233.178 711.115 C 233.461 723.207, 233.752 725.201, 235.596 727.681 C 238.116 731.071, 243.145 732.887, 248.250 732.250 C 251.610 731.830, 252 731.481, 252 728.891 C 252 726.286, 251.673 726, 248.691 726 C 242.121 726, 241.530 724.715, 241.514 710.375 L 241.500 697.567 246.250 697.859 L 251 698.151 251 694.576 L 251 691 245.911 691 L 240.822 691 241.161 684.998 C 241.360 681.469, 241.088 678.966, 240.500 678.922 C 239.950 678.881, 238.825 678.738, 238 678.604 C 237.175 678.470, 235.682 678.543, 234.682 678.767 M 475.250 678.739 C 474.439 679.016, 474 681.245, 474 685.083 L 474 691 470.500 691 C 467.307 691, 467 691.253, 467 693.893 C 467 696.835, 468.442 698, 472.082 698 C 473.874 698, 474 698.851, 474 710.935 C 474 718.049, 474.447 725.046, 474.994 726.483 C 476.225 729.722, 481.377 732, 487.468 732 C 491.837 732, 492 731.892, 492 729 C 492 726.250, 491.714 726, 488.571 726 C 482.534 726, 481.905 724.439, 482.221 710.229 L 482.500 697.658 487.250 697.712 C 491.991 697.765, 492 697.759, 492 694.383 L 492 691 487 691 L 482 691 482 684.567 C 482 678.194, 481.974 678.135, 479.250 678.222 C 477.738 678.271, 475.938 678.503, 475.250 678.739 M 267.478 691.418 C 263.283 692.942, 260 694.921, 260 695.924 C 260 696.394, 260.809 697.777, 261.797 698.998 L 263.594 701.217 267.047 699.112 C 271.411 696.452, 278.899 696.270, 281.886 698.750 C 283.045 699.712, 284.287 702.013, 284.645 703.863 L 285.295 707.226 281.348 706.559 C 276.052 705.664, 265.121 707.519, 262.012 709.840 C 256.351 714.067, 255.680 723.768, 260.724 728.445 C 264.533 731.977, 272.133 733.606, 277.120 731.960 C 279.270 731.251, 281.527 730.070, 282.137 729.335 C 283.740 727.403, 285 727.696, 285 730 C 285 731.667, 285.667 732, 289 732 L 293 732 292.994 717.750 C 292.991 709.913, 292.526 701.833, 291.960 699.795 C 290.845 695.780, 286.471 691.605, 284.266 692.451 C 283.513 692.741, 283.151 692.565, 283.463 692.061 C 284.862 689.796, 273.230 689.329, 267.478 691.418 M 313.791 690.988 C 305.708 693.425, 300.640 700.896, 300.554 710.500 C 300.482 718.524, 301.393 721.322, 305.588 725.966 C 312.625 733.755, 325.439 735.064, 333.881 728.856 C 338.545 725.426, 338.717 724.959, 336.171 722.655 C 333.817 720.524, 333.426 720.560, 329.654 723.250 C 327.230 724.979, 325.058 725.515, 320.267 725.566 C 316.840 725.602, 314.193 725.474, 314.386 725.281 C 314.579 725.088, 313.485 723.589, 311.954 721.951 C 307.478 717.159, 306.938 708.077, 310.780 702.214 C 313.935 697.399, 322.302 695.422, 326.646 698.465 C 327.796 699.270, 329.094 699.608, 329.529 699.215 C 329.964 698.822, 330.053 698.972, 329.725 699.550 C 329.397 700.127, 329.947 701.110, 330.946 701.734 C 332.403 702.644, 333.183 702.478, 334.882 700.896 C 337.663 698.305, 337.568 697.656, 333.969 694.627 C 329.039 690.479, 320.556 688.949, 313.791 690.988 M 552.333 691.097 C 547.635 692.458, 544 697.290, 544 702.177 C 544 708.009, 548.559 712.327, 556.529 714.043 C 565 715.867, 568 717.548, 568 720.469 C 568 726.182, 556.459 728.158, 549.736 723.596 L 546.194 721.192 544.128 723.568 L 542.061 725.945 545.281 728.397 C 554.332 735.292, 571.112 733.634, 574.828 725.478 C 576.395 722.039, 576.304 719.444, 574.484 715.607 C 572.608 711.655, 568.854 709.365, 561.872 707.916 C 558.917 707.303, 555.487 706.161, 554.250 705.378 C 551.336 703.533, 551.279 699.456, 554.146 697.922 C 557.156 696.311, 565.582 697.312, 568.087 699.578 C 570.115 701.414, 570.188 701.403, 572.069 698.974 C 574.314 696.075, 574.143 693.442, 571.722 693.637 C 570.787 693.712, 570.253 693.399, 570.536 692.941 C 571.948 690.656, 558.545 689.299, 552.333 691.097 M 592.500 690.935 C 588.918 691.807, 583 694.782, 583 695.711 C 583 696.074, 583.953 697.385, 585.117 698.625 L 587.234 700.878 590.852 698.939 C 592.996 697.790, 596.431 697, 599.283 697 C 603.203 697, 604.550 697.491, 606.548 699.646 C 607.896 701.101, 609 703.257, 609 704.436 C 609 706.446, 608.475 706.590, 600.616 706.728 C 595.754 706.814, 590.721 707.507, 588.638 708.378 C 582.071 711.122, 579.134 719.492, 582.473 725.947 C 584.076 729.047, 591.146 733.003, 595.066 732.994 C 599.273 732.985, 605.104 730.978, 604.371 729.791 C 603.953 729.115, 604.152 728.976, 604.889 729.432 C 605.548 729.839, 606.743 729.628, 607.544 728.964 C 608.741 727.970, 609 728.133, 609 729.878 C 609 731.637, 609.599 732, 612.500 732 L 616 732 616 715.904 C 616 702.448, 615.717 699.329, 614.272 696.883 C 610.964 691.283, 601.589 688.722, 592.500 690.935 M 640.021 691.116 C 638.657 691.660, 636.744 692.826, 635.771 693.708 C 634.129 695.194, 634 695.154, 634 693.155 C 634 691.308, 633.429 691, 630 691 L 626 691 626 711.500 L 626 732 630 732 L 634 732 634 717.556 C 634 704.010, 634.140 702.950, 636.250 700.522 C 639.612 696.653, 644.881 696.134, 648.575 699.309 L 651.500 701.822 651.822 716.911 L 652.144 732 656.071 732 L 659.999 732 659.782 718.157 C 659.535 702.380, 660.317 700.041, 666.523 697.992 C 671.356 696.397, 675.485 698.083, 676.935 702.244 C 677.521 703.924, 678 711.306, 678 718.649 L 678 732 682 732 L 686 732 686 718.125 C 686 701.115, 685.553 698.728, 681.572 694.507 C 676.104 688.710, 666.598 688.556, 660.979 694.175 L 657.880 697.274 656.379 695.131 C 653.203 690.596, 645.848 688.791, 640.021 691.116 M 705.030 691.583 C 700.069 693.735, 698.034 695.824, 695.368 701.500 C 686.003 721.438, 706.271 740.166, 726.054 729.855 C 731.899 726.808, 732.536 725.567, 729.486 723.167 L 726.896 721.131 723.198 723.642 C 720.001 725.813, 718.755 726.078, 714 725.599 C 706.244 724.817, 705.046 724.621, 705.462 724.204 C 705.664 724.003, 704.743 722.236, 703.415 720.279 C 699.167 714.019, 699.209 714, 717.140 714 L 733.280 714 732.707 708.446 C 732.098 702.546, 729.173 696.538, 725.686 694.025 C 720.070 689.976, 711.163 688.923, 705.030 691.583 M 751.419 691.075 C 743.230 693.453, 737.101 704.829, 738.506 715.043 C 739.338 721.096, 742.176 725.474, 747.851 729.463 C 751.690 732.161, 752.972 732.500, 759.336 732.500 C 765.377 732.500, 767.245 732.062, 771.250 729.708 C 776.492 726.627, 777.111 724.892, 773.799 722.572 C 771.772 721.152, 771.420 721.196, 769.361 723.131 C 764.383 727.807, 752.405 726.351, 748.926 720.647 C 744.954 714.133, 745.226 714, 762.500 714 L 778 714 778 708.960 C 778 695.461, 765.433 687.006, 751.419 691.075 M 821.244 690.664 C 820.553 690.943, 820.239 691.577, 820.546 692.074 C 820.853 692.571, 820.464 692.731, 819.681 692.431 C 818.898 692.131, 817.514 692.628, 816.606 693.537 C 809.705 700.438, 811.966 710.585, 820.940 712.986 C 835.047 716.762, 835.893 717.088, 836.491 718.971 C 838.717 725.986, 827.199 728.775, 818.129 723.417 C 815.033 721.588, 814.963 721.592, 812.828 723.727 C 810.991 725.565, 810.865 726.132, 811.993 727.491 C 812.723 728.371, 813.947 728.851, 814.712 728.557 C 815.478 728.263, 815.843 728.445, 815.524 728.961 C 814.667 730.348, 817.980 731.796, 823.772 732.564 C 829.521 733.327, 836.359 732.390, 835.476 730.961 C 835.157 730.445, 835.585 730.287, 836.426 730.610 C 837.353 730.966, 839.149 730.005, 840.978 728.176 C 843.415 725.739, 844 724.311, 844 720.799 C 844 713.551, 838.801 708.774, 829.500 707.479 C 823.256 706.610, 820.398 704.864, 819.760 701.526 C 819.487 700.099, 819.506 699.172, 819.801 699.468 C 820.096 699.763, 821.209 699.216, 822.274 698.252 C 824.922 695.856, 831.906 696.111, 836.083 698.756 L 839.350 700.824 841.286 698.363 C 843.100 696.057, 843.117 695.786, 841.549 694.054 C 838.767 690.980, 825.822 688.819, 821.244 690.664 M 384.387 692.688 C 384.695 693.685, 386.065 698.325, 387.431 703 C 388.796 707.675, 391.410 716, 393.239 721.500 L 396.564 731.500 400.599 731.799 C 405.448 732.157, 405.283 732.445, 410.082 715.260 C 411.962 708.528, 413.725 703.018, 414 703.015 C 414.275 703.011, 415.996 708.069, 417.824 714.254 C 422.935 731.545, 423.190 732, 427.767 732 L 431.631 732 437.816 712.679 C 441.217 702.053, 444 692.828, 444 692.179 C 444 691.481, 442.452 691, 440.203 691 L 436.406 691 432.694 705.250 C 430.653 713.087, 428.986 720.063, 428.991 720.750 C 429.011 723.557, 427.236 721.723, 426.088 717.750 C 425.412 715.413, 423.243 708.438, 421.267 702.250 L 417.675 691 414.393 691 L 411.111 691 407.499 702.750 C 401.873 721.051, 401.282 722.643, 400.722 721 C 400.440 720.175, 398.462 713.200, 396.324 705.500 L 392.438 691.500 388.132 691.188 C 384.365 690.916, 383.896 691.103, 384.387 692.688 M 452 711.500 L 452 732 456 732 L 460 732 460 711.500 L 460 691 456 691 L 452 691 452 711.500 M 786 711.500 L 786 732 790 732 L 794 732 794 718.434 C 794 710.629, 794.459 704.011, 795.080 702.850 C 796.324 700.526, 801.751 698, 805.499 698 C 807.821 698, 808.040 697.660, 807.820 694.397 C 807.578 690.809, 807.560 690.796, 803.635 691.322 C 801.467 691.613, 798.412 692.798, 796.846 693.955 C 794.225 695.893, 793.991 695.919, 793.882 694.280 C 793.816 693.301, 793.816 692.163, 793.882 691.750 C 793.947 691.337, 792.200 691, 790 691 L 786 691 786 711.500 M 705.400 700.400 C 703.530 702.270, 702 704.745, 702 705.900 C 702 707.912, 702.484 708, 713.500 708 C 724.516 708, 725 707.912, 725 705.900 C 725 704.745, 723.470 702.270, 721.600 700.400 C 718.698 697.498, 717.512 697, 713.500 697 C 709.488 697, 708.302 697.498, 705.400 700.400 M 750.368 700.571 C 748.516 702.535, 747 705.010, 747 706.071 C 747 707.863, 747.806 708, 758.333 708 C 764.567 708, 769.949 707.718, 770.293 707.373 C 771.276 706.391, 768.315 701.393, 765.385 699.088 C 763.587 697.674, 761.279 697, 758.233 697 C 754.372 697, 753.260 697.505, 750.368 700.571 M 271.256 712.975 C 266.903 714.008, 265 715.746, 265 718.688 C 265 724.607, 270.304 727.803, 277.093 725.975 C 282.025 724.647, 285 720.843, 285 715.865 L 285 712 279.750 712.102 C 276.863 712.159, 273.040 712.551, 271.256 712.975 M 595.802 712.949 C 590.751 713.931, 589 715.643, 589 719.599 C 589 723.749, 592.350 726.273, 597.860 726.273 C 604.485 726.273, 609 721.441, 609 714.351 C 609 712.197, 608.602 712.010, 604.250 712.115 C 601.638 712.178, 597.836 712.554, 595.802 712.949 M 815 723.941 C 815 724.459, 815.375 725.114, 815.833 725.397 C 816.292 725.680, 816.667 725.257, 816.667 724.456 C 816.667 723.655, 816.292 723, 815.833 723 C 815.375 723, 815 723.423, 815 723.941" stroke="none" fill="#3558db" fill-rule="evenodd"/>
</svg>